HIERARCHY
ROOT Spine
{
    OFFSET 0.0 0.0 -0.0
    CHANNELS 6 Xposition Yposition Zposition Zrotation Xrotation Yrotation
    JOINT ShoulderCenter
    {
        OFFSET 0.0 31.7155818939209 0.0
        CHANNELS 3 Zrotation Xrotation Yrotation
        JOINT LeftShoulder
        {
            OFFSET 12.371820449829102 0.0 0.0
            CHANNELS 3 Zrotation Xrotation Yrotation
            JOINT LeftElbow
            {
                OFFSET 28.576499938964844 0.0 0.0
                CHANNELS 3 Zrotation Xrotation Yrotation
                JOINT LeftHand
                {
                    OFFSET 31.149410247802734 0.0 0.0
                    CHANNELS 3 Zrotation Xrotation Yrotation
                    End Site
                    {
                        OFFSET 12.45976448059082 0.0 0.0
                    }
                }
            }
        }
        JOINT RightShoulder
        {
            OFFSET -12.371820449829102 0.0 0.0
            CHANNELS 3 Zrotation Xrotation Yrotation
            JOINT RightElbow
            {
                OFFSET -28.576499938964844 0.0 0.0
                CHANNELS 3 Zrotation Xrotation Yrotation
                JOINT RightHand
                {
                    OFFSET -31.149410247802734 0.0 0.0
                    CHANNELS 3 Zrotation Xrotation Yrotation
                    End Site
                    {
                        OFFSET -12.45976448059082 0.0 0.0
                    }
                }
            }
        }
        End Site
        {
            OFFSET 0.0 12.686232566833496 0.0
        }
    }
    JOINT LeftHip
    {
        OFFSET 15.476964753996805 -15.476964753996805 0.0
        CHANNELS 3 Zrotation Xrotation Yrotation
        JOINT LeftKnee
        {
            OFFSET 0.0 -34.824562072753906 0.0
            CHANNELS 3 Zrotation Xrotation Yrotation
            JOINT LeftFoot
            {
                OFFSET 0.0 -39.86363220214844 0.0
                CHANNELS 3 Zrotation Xrotation Yrotation
                End Site
                {
                    OFFSET 0.0 0.0 15.945453643798828
                }
            }
        }
    }
    JOINT RightHip
    {
        OFFSET -15.476964753996805 -15.476964753996805 0.0
        CHANNELS 3 Zrotation Xrotation Yrotation
        JOINT RightKnee
        {
            OFFSET 0.0 -34.824562072753906 0.0
            CHANNELS 3 Zrotation Xrotation Yrotation
            JOINT RightFoot
            {
                OFFSET 0.0 -39.86363220214844 0.0
                CHANNELS 3 Zrotation Xrotation Yrotation
                End Site
                {
                    OFFSET 0.0 0.0 15.945453643798828
                }
            }
        }
    }
}
MOTION
Frames: 12
Frame Time: 0.03333333333333333
159.1999969482422 -3.700000047683716 0.10000000149011612 9.610657958302873 -1.443570072272294 -87.48888320765836 2.523310449503886e-07 -7.098162822753284e-08 -1.2181456779322355 98.63638313779096 -5.44051917411391 -175.14886606430366 -4.140029888116609e-06 3.4550160166716853e-06 38.468770073958936 3.1805546814635168e-15 -6.3611093629270335e-15 3.1805546814635168e-15 -97.26272085270601 -4.462352169922702 -171.4702784836101 -1.8139088200954723e-07 1.113887758484848e-06 -42.03774468495782 0.0 -9.541664044390549e-15 0.0 -6.934913202801127 6.86003604201039 -50.44276667075173 8.44514000783427 -3.246610766904984 3.53524017016349 -5.963540027744093e-16 -3.9756933518293955e-16 -8.137747329525793e-16 8.199954980847323 -38.39400820728154 -5.809990908949385 -14.801458868697287 8.954355668938083 31.583960674746695 -1.590277340731758e-15 -3.586298867165754e-32 2.5842006786891068e-15
154.20001220703125 -4.099999904632568 -0.6000000238418579 9.25441677997444 -2.527752517172996 -86.92363481265748 -2.5362572542796936e-07 1.3821784104685652e-07 -2.318239436542136 97.29336586608962 -2.775067023662193 -177.0294200080164 -4.9513793581182174e-06 1.3553358402709901e-06 36.340234686676716 -3.1805546814635168e-15 -6.3611093629270335e-15 -1.7655625192200634e-31 -98.74289157705965 -3.463515831476836 -170.7443900627837 -1.8757767105748873e-06 1.7136905650611973e-06 -43.17554062142761 6.361109362927035e-15 6.361109362927035e-15 -6.361109362927035e-15 -8.368610878396744 1.8181432437631246 -46.77141864689875 -2.304823309122351 9.011041817830518 -7.540810224147794 -4.770832022195274e-15 1.5902773407317582e-15 1.1927080055488186e-15 5.293248459671599 -36.705354087713836 -4.093937512486382 -13.133949366844911 12.911930154365209 42.105663672490635 0.0 0.0 -1.0933156717530838e-15
149.3000030517578 -3.700000047683716 -1.4000000953674316 9.46231701176805 -3.978708815176355 -87.83824184427925 3.697625717495721e-07 2.4393435448004656e-07 -1.018357998602178 95.0810932352337 0.7988863418940364 -178.63950219422617 7.54610072630925e-07 9.200723101497949e-07 33.85176709586675 6.361109362927032e-15 -6.3611093629270335e-15 -6.361109362927032e-15 -100.2542579483359 -0.3355595441188658 -171.70102444296379 8.548588834266597e-08 1.93672727586312e-06 -40.6547878316128 -1.7655625192200634e-31 -6.361109362927033e-15 -3.1805546814635164e-15 -8.436074138953167 -7.97697521740268 -39.44680686689513 -17.082486321831116 24.916065718473178 -15.516955791893874 7.951386703658792e-16 -8.276074308844047e-33 -1.1927080055488188e-15 2.7486523595739856 -34.17696365440477 0.6726791668808687 -9.220690802371344 15.104811752788121 40.83676884010549 3.275946080584102e-33 7.951386703658792e-16 -4.721135855297407e-16
145.0 -3.0 -2.299999952316284 11.132091110946218 -4.5242626421223475 -87.67899583286237 -2.930003364300533e-07 1.0129424003006884e-07 0.5523917590340323 93.64367834600826 2.840995683348066 -179.0839471575812 -6.604538553572256e-07 -4.328286530685032e-06 31.757796514059564 3.1805546814635168e-15 6.3611093629270335e-15 -1.7655625192200634e-31 -101.77460697345852 -0.974090035056226 -173.11273013738293 -3.389030694871539e-06 1.7280946548146086e-06 -38.58945804076699 0.0 0.0 0.0 -5.200092601470967 -24.02290187676242 -22.153949916226694 -29.22908537133749 47.34658161570436 -25.24300812799811 0.0 0.0 3.975693351829396e-16 1.6223076359875441 -31.53967823051095 9.06834823419464 -4.976215492794985 14.20362789961575 32.08331782763567 7.951386703658792e-16 3.975693351829396e-16 4.969616689786745e-17
141.40000915527344 -2.200000047683716 -3.200000047683716 13.552205130575976 -4.346081481513368 -86.41127508619242 -6.363091787643951e-07 7.943913288366157e-08 1.7958170231954826 93.10351950208249 2.2044930361504362 -178.2208582918127 2.5969031052565496e-06 -1.303858209691943e-06 30.060604966124185 -3.531125038440127e-31 6.361109362927032e-15 6.361109362927032e-15 -104.42622961213083 -7.188433533471257 -173.85576602733792 6.488415848304725e-07 -2.812323050234697e-07 -40.986882430138344 0.0 0.0 -3.1805546814635164e-15 -1.4063208550077269 -42.978319797851206 14.974459640152167 25.669232264422703 70.97557107691505 -91.94389973046545 -3.1805546814635168e-15 -1.5902773407317584e-15 3.578124016646457e-15 1.793879810044684 -29.129677832948605 18.39497898108957 -3.693576838444101 11.2739745025957 23.888823942594087 0.0 0.0 1.5902773407317584e-15
138.1999969482422 -1.5 -3.799999952316284 15.795914387232546 -4.163836635942141 -85.72451982204117 -5.49540875359965e-07 6.92586369952377e-07 2.319269572793556 92.94288210776347 1.9405896805954381 -178.83054493821905 4.5242383436588575e-06 6.925348140048767e-07 30.35827665031492 3.1805546814635168e-15 -6.3611093629270335e-15 1.7655625192200634e-31 -107.44765722624766 -12.887521628233936 -174.4072921550579 -2.0183196054556653e-06 7.54076741312229e-07 -46.07991237603748 -6.3611093629270335e-15 -3.531125038440127e-31 6.3611093629270335e-15 3.21579114833173 -61.763803804153774 49.60266815491014 83.4307245632048 52.103556983435716 -148.592614857834 8.15017137125026e-15 7.951386703658788e-16 -5.5659706925611536e-15 2.2013344489104076 -26.83433562168336 25.815073773582668 -4.205584597735422 8.238052044742616 17.246021844511308 0.0 0.0 3.6153961418198566e-15
135.1999969482422 -1.0 -4.199999809265137 17.461987103410635 -3.9751281994294843 -85.54274952021981 -6.193152532588144e-07 2.5397646311045276e-06 3.3074467879096225 92.98143672934575 1.398516855545262 -179.3504156817442 6.26320214588957e-06 2.527950350536902e-06 30.56260262774531 3.1805546814635168e-15 0.0 0.0 -108.7385118321642 -13.154190416363562 -174.72629454236218 5.154336394943358e-06 -3.376129956254256e-06 -49.80616675769961 8.827812596100317e-32 1.5902773407317584e-15 -6.3611093629270335e-15 10.642196213991669 -77.84637947795039 68.5873049899365 92.33209898869077 41.230756325167675 -150.46992471818064 -2.584200678689107e-15 8.965747167914385e-33 -3.9756933518293955e-16 2.935906744758258 -24.035884567667967 31.654693883880423 -5.890420856135759 5.07390677270555 10.622708857571498 1.4914175577396045e-32 -3.975693351829396e-16 4.298718436665535e-15
132.29998779296875 -0.7000000476837158 -4.400000095367432 18.836395296419035 -3.983536259152358 -86.34756643752425 -1.7098431007353588e-06 4.646811441828821e-07 3.9412260627392546 92.63982278679512 2.5282487567161542 -179.75686036951814 1.430397989640204e-06 8.243497568476068e-07 30.892112777809437 3.1805546814635168e-15 -1.7655625192200634e-31 -6.3611093629270335e-15 -108.33997005384855 -11.028727988080318 -176.16501353464676 1.6806151433405566e-06 2.452906094874618e-06 -50.42886538456467 -6.3611093629270335e-15 -1.7655625192200634e-31 3.1805546814635168e-15 63.482960124425226 -86.98852534772873 125.2200934833855 90.32869595914619 38.35521372550396 -142.68937259190025 -6.957463365701443e-16 1.1164079406201085e-32 -1.8387581752210955e-15 3.2861464673059713 -21.36467920400055 36.741404018693345 -7.452702221750615 2.170093708685719 4.518154680894613 -6.37947394640062e-33 3.975693351829396e-16 1.8387581752210955e-15
129.60000610351562 -0.6000000238418579 -4.5 20.153309112243203 -3.977877142760154 -86.81835258646619 7.852469767675112e-07 2.1157665883064886e-07 3.4424836629278355 92.6396661442498 3.117003749822812 -179.76326170255734 -2.3315216751837536e-06 -5.47011010769641e-06 30.61095770832338 -3.1805546814635168e-15 3.531125038440127e-31 -1.2722218725854067e-14 -107.56605548959975 -9.218435836219834 -177.3534153427124 -1.8835394478520403e-06 1.189580475471963e-06 -49.96418891955077 0.0 -1.5902773407317588e-15 0.0 150.67559357333607 -85.87866987481735 -147.28847511587983 84.62699524337826 37.947967015055056 -132.87914817442183 2.2363275104040355e-16 -2.484808344893373e-17 -1.866712269101146e-15 3.160749727750835 -18.351949262330766 41.742319151199744 -9.854838277610785 -0.9827339611268852 -2.065741754118587 0.0 0.0 -2.6338968455869755e-15
126.90000915527344 -0.5 -4.5 20.725577926071754 -3.9764931705246926 -87.22129300964896 -1.6641750160554225e-06 1.0606185816254688e-06 3.284639677797518 92.48685501045762 3.995039568123357 -179.9452849334025 2.68787587060245e-06 4.106545276601368e-06 30.424957329647118 -3.1805546814635168e-15 1.7655625192200634e-31 -6.3611093629270335e-15 -106.74954026215788 -8.627256852224706 -176.5041286314308 -4.068467639884467e-07 5.264623629257349e-06 -50.47065903971128 -6.3611093629270335e-15 -6.3611093629270335e-15 6.3611093629270335e-15 171.08873220072266 -85.81036176673466 -127.78878507542039 77.9258423571668 37.06846790553709 -123.35117581488862 -6.957463365701445e-16 2.981770013872048e-16 8.448348372637468e-16 2.6706229916471886 -13.10814969062203 47.179567118228775 -14.417739722085214 -5.681750756438023 -12.51922804089015 -1.5902773407317582e-15 2.4138550067461804e-32 -1.7393658414253603e-15
124.19999694824219 -0.5 -4.199999809265137 21.532084876760642 -3.9818071384759617 -87.26355305368652 -5.21931523577666e-07 -1.8193243003232602e-07 2.7273322524356014 92.69489153655502 3.8219081323751243 179.83776819602355 8.613311036522732e-07 7.998094962493873e-06 31.40693292427082 0.0 0.0 0.0 -106.13385787957436 -8.635499187907067 -175.60238632226216 4.3770895662856874e-07 1.5638878642675974e-06 -50.79634017142445 6.361109362927032e-15 0.0 0.0 -148.44967759718202 -87.00212745381127 -88.94915354616302 71.77821023927784 35.93988512291572 -115.60532148101849 -2.4848083448933722e-17 3.242944156663744e-34 -1.4955440225826984e-15 2.5375580470448478 -12.06065642673554 47.515365234036125 -14.500567037133555 -5.819787749007909 -12.653555098353324 0.0 0.0 -2.1369351766083005e-15
121.5 -0.6000000238418579 -3.9000000953674316 22.271863272332084 -3.6143985788380486 -88.13455926758509 -1.8053864291633271e-06 4.726205263803317e-07 2.840994502331516 93.0734449214942 4.489671202967434 179.85812740592658 6.478453795555478e-06 -1.6675863694135657e-06 31.928297189726404 3.531125038440127e-31 -6.361109362927033e-15 6.361109362927033e-15 -105.81484946124914 -9.20061771016718 -175.02409109328593 -3.194280172077348e-07 8.924577990570895e-08 -50.772119078746854 0.0 -3.1805546814635168e-15 0.0 -88.79971132095845 -87.30870656837328 -31.34906223660417 66.89939281474999 34.82612447284995 -110.26580258583691 -1.4908850069360237e-16 1.987846675914698e-16 6.3673213837892666e-15 2.9219173315994915 -11.600040774312848 47.9040537143746 -14.25465923594219 -5.580975710884388 -12.32048142331947 -5.0001282282599455e-33 -3.975693351829396e-16 -1.441188840038156e-15
